<mxfile host="app.diagrams.net" modified="2022-12-08T12:39:12.562Z" agent="5.0 (Windows NT 10.0; Win64; x64) AppleWebKit/537.36 (KHTML, like Gecko) Chrome/107.0.0.0 Safari/537.36" etag="txYM3NZL5bvqKvkzMqW2" version="15.3.1" type="github">
  <diagram id="AccpcXOp8Y5qh1Iar677" name="第 1 页">
    <mxGraphModel dx="1185" dy="635" grid="1" gridSize="10" guides="1" tooltips="1" connect="1" arrows="1" fold="1" page="1" pageScale="1" pageWidth="1600" pageHeight="900" math="0" shadow="0">
      <root>
        <mxCell id="0" />
        <mxCell id="1" parent="0" />
        <mxCell id="phxbxA8KWM64b7_R9bl6-21" style="edgeStyle=orthogonalEdgeStyle;rounded=0;orthogonalLoop=1;jettySize=auto;html=1;fontFamily=Times New Roman;fontSize=16;strokeWidth=2;sketch=0;shadow=0;" edge="1" parent="1" source="phxbxA8KWM64b7_R9bl6-20">
          <mxGeometry relative="1" as="geometry">
            <mxPoint x="505" y="340" as="targetPoint" />
          </mxGeometry>
        </mxCell>
        <mxCell id="phxbxA8KWM64b7_R9bl6-20" value="x1" style="rounded=1;whiteSpace=wrap;html=1;shadow=0;glass=0;sketch=0;fontFamily=Times New Roman;fontSize=16;strokeWidth=2;" vertex="1" parent="1">
          <mxGeometry x="490" y="540" width="30" height="30" as="geometry" />
        </mxCell>
        <mxCell id="phxbxA8KWM64b7_R9bl6-22" style="edgeStyle=orthogonalEdgeStyle;rounded=0;orthogonalLoop=1;jettySize=auto;html=1;fontFamily=Times New Roman;fontSize=16;strokeWidth=2;startArrow=none;sketch=0;shadow=0;" edge="1" source="phxbxA8KWM64b7_R9bl6-58" parent="1">
          <mxGeometry relative="1" as="geometry">
            <mxPoint x="545" y="340" as="targetPoint" />
          </mxGeometry>
        </mxCell>
        <mxCell id="phxbxA8KWM64b7_R9bl6-23" value="x1" style="rounded=1;whiteSpace=wrap;html=1;shadow=0;glass=0;sketch=0;fontFamily=Times New Roman;fontSize=16;strokeWidth=2;" vertex="1" parent="1">
          <mxGeometry x="530" y="540" width="30" height="30" as="geometry" />
        </mxCell>
        <mxCell id="phxbxA8KWM64b7_R9bl6-36" value="x1" style="rounded=1;whiteSpace=wrap;html=1;shadow=0;glass=0;sketch=0;fontFamily=Times New Roman;fontSize=16;strokeWidth=2;" vertex="1" parent="1">
          <mxGeometry x="570" y="540" width="30" height="30" as="geometry" />
        </mxCell>
        <mxCell id="phxbxA8KWM64b7_R9bl6-37" style="edgeStyle=orthogonalEdgeStyle;rounded=0;orthogonalLoop=1;jettySize=auto;html=1;fontFamily=Times New Roman;fontSize=16;strokeWidth=2;startArrow=none;sketch=0;shadow=0;" edge="1" source="phxbxA8KWM64b7_R9bl6-56" parent="1">
          <mxGeometry relative="1" as="geometry">
            <mxPoint x="585" y="340" as="targetPoint" />
          </mxGeometry>
        </mxCell>
        <mxCell id="phxbxA8KWM64b7_R9bl6-38" value="x1" style="rounded=1;whiteSpace=wrap;html=1;shadow=0;glass=0;sketch=0;fontFamily=Times New Roman;fontSize=16;strokeWidth=2;" vertex="1" parent="1">
          <mxGeometry x="610" y="540" width="30" height="30" as="geometry" />
        </mxCell>
        <mxCell id="phxbxA8KWM64b7_R9bl6-39" style="edgeStyle=orthogonalEdgeStyle;rounded=0;orthogonalLoop=1;jettySize=auto;html=1;fontFamily=Times New Roman;fontSize=16;strokeWidth=2;sketch=0;shadow=0;" edge="1" source="phxbxA8KWM64b7_R9bl6-38" parent="1">
          <mxGeometry relative="1" as="geometry">
            <mxPoint x="625" y="340" as="targetPoint" />
          </mxGeometry>
        </mxCell>
        <mxCell id="phxbxA8KWM64b7_R9bl6-40" value="x1" style="rounded=1;whiteSpace=wrap;html=1;shadow=0;glass=0;sketch=0;fontFamily=Times New Roman;fontSize=16;strokeWidth=2;" vertex="1" parent="1">
          <mxGeometry x="650" y="540" width="30" height="30" as="geometry" />
        </mxCell>
        <mxCell id="phxbxA8KWM64b7_R9bl6-41" style="edgeStyle=orthogonalEdgeStyle;rounded=0;orthogonalLoop=1;jettySize=auto;html=1;fontFamily=Times New Roman;fontSize=16;strokeWidth=2;sketch=0;shadow=0;" edge="1" source="phxbxA8KWM64b7_R9bl6-40" parent="1">
          <mxGeometry relative="1" as="geometry">
            <mxPoint x="665" y="340" as="targetPoint" />
          </mxGeometry>
        </mxCell>
        <mxCell id="phxbxA8KWM64b7_R9bl6-42" value="x1" style="rounded=1;whiteSpace=wrap;html=1;shadow=0;glass=0;sketch=0;fontFamily=Times New Roman;fontSize=16;strokeWidth=2;" vertex="1" parent="1">
          <mxGeometry x="690" y="540" width="30" height="30" as="geometry" />
        </mxCell>
        <mxCell id="phxbxA8KWM64b7_R9bl6-43" style="edgeStyle=orthogonalEdgeStyle;rounded=0;orthogonalLoop=1;jettySize=auto;html=1;fontFamily=Times New Roman;fontSize=16;strokeWidth=2;sketch=0;shadow=0;" edge="1" source="phxbxA8KWM64b7_R9bl6-42" parent="1">
          <mxGeometry relative="1" as="geometry">
            <mxPoint x="705" y="340" as="targetPoint" />
          </mxGeometry>
        </mxCell>
        <mxCell id="phxbxA8KWM64b7_R9bl6-44" value="x1" style="rounded=1;whiteSpace=wrap;html=1;shadow=0;glass=0;sketch=0;fontFamily=Times New Roman;fontSize=16;strokeWidth=2;" vertex="1" parent="1">
          <mxGeometry x="730" y="540" width="30" height="30" as="geometry" />
        </mxCell>
        <mxCell id="phxbxA8KWM64b7_R9bl6-45" style="edgeStyle=orthogonalEdgeStyle;rounded=0;orthogonalLoop=1;jettySize=auto;html=1;fontFamily=Times New Roman;fontSize=16;strokeWidth=2;sketch=0;shadow=0;" edge="1" source="phxbxA8KWM64b7_R9bl6-44" parent="1">
          <mxGeometry relative="1" as="geometry">
            <mxPoint x="745" y="340" as="targetPoint" />
          </mxGeometry>
        </mxCell>
        <mxCell id="phxbxA8KWM64b7_R9bl6-46" value="x1" style="rounded=1;whiteSpace=wrap;html=1;shadow=0;glass=0;sketch=0;fontFamily=Times New Roman;fontSize=16;strokeWidth=2;" vertex="1" parent="1">
          <mxGeometry x="770" y="540" width="30" height="30" as="geometry" />
        </mxCell>
        <mxCell id="phxbxA8KWM64b7_R9bl6-47" style="edgeStyle=orthogonalEdgeStyle;rounded=0;orthogonalLoop=1;jettySize=auto;html=1;fontFamily=Times New Roman;fontSize=16;strokeWidth=2;sketch=0;shadow=0;" edge="1" source="phxbxA8KWM64b7_R9bl6-46" parent="1">
          <mxGeometry relative="1" as="geometry">
            <mxPoint x="785" y="340" as="targetPoint" />
          </mxGeometry>
        </mxCell>
        <mxCell id="phxbxA8KWM64b7_R9bl6-50" value="" style="shape=flexArrow;endArrow=classic;html=1;fontFamily=Times New Roman;fontSize=16;strokeWidth=2;sketch=0;shadow=0;rounded=1;" edge="1" parent="1">
          <mxGeometry width="50" height="50" relative="1" as="geometry">
            <mxPoint x="821" y="554.66" as="sourcePoint" />
            <mxPoint x="921" y="554.66" as="targetPoint" />
          </mxGeometry>
        </mxCell>
        <mxCell id="phxbxA8KWM64b7_R9bl6-55" style="edgeStyle=orthogonalEdgeStyle;rounded=1;orthogonalLoop=1;jettySize=auto;html=1;fontFamily=Times New Roman;fontSize=16;strokeWidth=2;entryX=1;entryY=0.5;entryDx=0;entryDy=0;sketch=0;shadow=0;fillColor=#008a00;strokeColor=#005700;" edge="1" parent="1" source="phxbxA8KWM64b7_R9bl6-51" target="phxbxA8KWM64b7_R9bl6-56">
          <mxGeometry relative="1" as="geometry">
            <mxPoint x="590" y="440" as="targetPoint" />
            <Array as="points">
              <mxPoint x="997" y="430" />
            </Array>
          </mxGeometry>
        </mxCell>
        <mxCell id="phxbxA8KWM64b7_R9bl6-51" value="&lt;b&gt;w1={x1,x2,x3}&lt;/b&gt;" style="rounded=1;whiteSpace=wrap;html=1;shadow=0;glass=0;sketch=0;fontFamily=Times New Roman;fontSize=16;strokeWidth=2;fillColor=#008a00;strokeColor=#005700;fontColor=#ffffff;" vertex="1" parent="1">
          <mxGeometry x="942" y="540" width="110" height="30" as="geometry" />
        </mxCell>
        <mxCell id="phxbxA8KWM64b7_R9bl6-94" style="edgeStyle=orthogonalEdgeStyle;rounded=1;sketch=0;orthogonalLoop=1;jettySize=auto;html=1;shadow=0;fontFamily=Times New Roman;fontSize=16;strokeWidth=2;entryX=1;entryY=0.5;entryDx=0;entryDy=0;fillColor=#008a00;strokeColor=#005700;" edge="1" parent="1" source="phxbxA8KWM64b7_R9bl6-52" target="phxbxA8KWM64b7_R9bl6-70">
          <mxGeometry relative="1" as="geometry">
            <mxPoint x="1127" y="340" as="targetPoint" />
            <Array as="points">
              <mxPoint x="1127" y="400" />
            </Array>
          </mxGeometry>
        </mxCell>
        <mxCell id="phxbxA8KWM64b7_R9bl6-52" value="&lt;b&gt;w1={x1,x2,x3}&lt;/b&gt;" style="rounded=1;whiteSpace=wrap;html=1;shadow=0;glass=0;sketch=0;fontFamily=Times New Roman;fontSize=16;strokeWidth=2;fillColor=#008a00;strokeColor=#005700;fontColor=#ffffff;" vertex="1" parent="1">
          <mxGeometry x="1072" y="540" width="110" height="30" as="geometry" />
        </mxCell>
        <mxCell id="phxbxA8KWM64b7_R9bl6-95" style="edgeStyle=orthogonalEdgeStyle;rounded=1;sketch=0;orthogonalLoop=1;jettySize=auto;html=1;shadow=0;fontFamily=Times New Roman;fontSize=16;strokeWidth=2;entryX=1;entryY=0.5;entryDx=0;entryDy=0;fillColor=#008a00;strokeColor=#005700;" edge="1" parent="1" source="phxbxA8KWM64b7_R9bl6-53" target="phxbxA8KWM64b7_R9bl6-92">
          <mxGeometry relative="1" as="geometry">
            <mxPoint x="1246" y="220" as="targetPoint" />
            <Array as="points">
              <mxPoint x="1246" y="370" />
            </Array>
          </mxGeometry>
        </mxCell>
        <mxCell id="phxbxA8KWM64b7_R9bl6-53" value="&lt;b&gt;w1={x1,x2}&lt;/b&gt;" style="rounded=1;whiteSpace=wrap;html=1;shadow=0;glass=0;sketch=0;fontFamily=Times New Roman;fontSize=16;strokeWidth=2;fillColor=#008a00;strokeColor=#005700;fontColor=#ffffff;" vertex="1" parent="1">
          <mxGeometry x="1202" y="540" width="88" height="30" as="geometry" />
        </mxCell>
        <mxCell id="phxbxA8KWM64b7_R9bl6-61" style="edgeStyle=orthogonalEdgeStyle;rounded=0;orthogonalLoop=1;jettySize=auto;html=1;entryX=1;entryY=0.5;entryDx=0;entryDy=0;fontFamily=Times New Roman;fontSize=16;strokeWidth=2;sketch=0;shadow=0;fillColor=#008a00;strokeColor=#005700;" edge="1" parent="1" source="phxbxA8KWM64b7_R9bl6-56" target="phxbxA8KWM64b7_R9bl6-58">
          <mxGeometry relative="1" as="geometry" />
        </mxCell>
        <mxCell id="phxbxA8KWM64b7_R9bl6-56" value="&lt;span style=&quot;font-size: 20px;&quot;&gt;+&lt;/span&gt;" style="rounded=1;whiteSpace=wrap;html=1;shadow=0;glass=0;sketch=0;fontFamily=Times New Roman;fontSize=20;strokeWidth=2;fontColor=#ffffff;fontStyle=1;strokeColor=#005700;fillColor=#008a00;" vertex="1" parent="1">
          <mxGeometry x="575" y="420" width="20" height="20" as="geometry" />
        </mxCell>
        <mxCell id="phxbxA8KWM64b7_R9bl6-57" value="" style="edgeStyle=orthogonalEdgeStyle;rounded=0;orthogonalLoop=1;jettySize=auto;html=1;fontFamily=Times New Roman;fontSize=16;strokeWidth=2;endArrow=none;sketch=0;shadow=0;" edge="1" parent="1" source="phxbxA8KWM64b7_R9bl6-36" target="phxbxA8KWM64b7_R9bl6-56">
          <mxGeometry relative="1" as="geometry">
            <mxPoint x="585" y="370" as="targetPoint" />
            <mxPoint x="585" y="540" as="sourcePoint" />
          </mxGeometry>
        </mxCell>
        <mxCell id="phxbxA8KWM64b7_R9bl6-63" style="edgeStyle=orthogonalEdgeStyle;rounded=0;orthogonalLoop=1;jettySize=auto;html=1;exitX=0;exitY=0.5;exitDx=0;exitDy=0;entryX=1;entryY=0.5;entryDx=0;entryDy=0;fontFamily=Times New Roman;fontSize=16;strokeWidth=2;sketch=0;shadow=0;fillColor=#008a00;strokeColor=#005700;" edge="1" parent="1" source="phxbxA8KWM64b7_R9bl6-58" target="phxbxA8KWM64b7_R9bl6-60">
          <mxGeometry relative="1" as="geometry" />
        </mxCell>
        <mxCell id="phxbxA8KWM64b7_R9bl6-58" value="&lt;span style=&quot;font-size: 20px;&quot;&gt;+&lt;/span&gt;" style="rounded=1;whiteSpace=wrap;html=1;shadow=0;glass=0;sketch=0;fontFamily=Times New Roman;fontSize=20;strokeWidth=2;fontColor=#ffffff;fontStyle=1;strokeColor=#005700;fillColor=#008a00;" vertex="1" parent="1">
          <mxGeometry x="535" y="420" width="20" height="20" as="geometry" />
        </mxCell>
        <mxCell id="phxbxA8KWM64b7_R9bl6-59" value="" style="edgeStyle=orthogonalEdgeStyle;rounded=0;orthogonalLoop=1;jettySize=auto;html=1;fontFamily=Times New Roman;fontSize=16;strokeWidth=2;endArrow=none;sketch=0;shadow=0;" edge="1" parent="1" source="phxbxA8KWM64b7_R9bl6-23" target="phxbxA8KWM64b7_R9bl6-58">
          <mxGeometry relative="1" as="geometry">
            <mxPoint x="545" y="370" as="targetPoint" />
            <mxPoint x="545" y="540" as="sourcePoint" />
          </mxGeometry>
        </mxCell>
        <mxCell id="phxbxA8KWM64b7_R9bl6-60" value="&lt;span style=&quot;font-size: 20px;&quot;&gt;+&lt;/span&gt;" style="rounded=1;whiteSpace=wrap;html=1;shadow=0;glass=0;sketch=0;fontFamily=Times New Roman;fontSize=20;strokeWidth=2;fontColor=#ffffff;fontStyle=1;strokeColor=#005700;fillColor=#008a00;" vertex="1" parent="1">
          <mxGeometry x="495" y="420" width="20" height="20" as="geometry" />
        </mxCell>
        <mxCell id="phxbxA8KWM64b7_R9bl6-69" style="edgeStyle=orthogonalEdgeStyle;rounded=0;orthogonalLoop=1;jettySize=auto;html=1;entryX=1;entryY=0.5;entryDx=0;entryDy=0;fontFamily=Times New Roman;fontSize=16;strokeWidth=2;sketch=0;shadow=0;fillColor=#008a00;strokeColor=#005700;" edge="1" source="phxbxA8KWM64b7_R9bl6-70" target="phxbxA8KWM64b7_R9bl6-72" parent="1">
          <mxGeometry relative="1" as="geometry" />
        </mxCell>
        <mxCell id="phxbxA8KWM64b7_R9bl6-70" value="&lt;span style=&quot;font-size: 20px;&quot;&gt;+&lt;/span&gt;" style="rounded=1;whiteSpace=wrap;html=1;shadow=0;glass=0;sketch=0;fontFamily=Times New Roman;fontSize=20;strokeWidth=2;fontColor=#ffffff;fontStyle=1;strokeColor=#005700;fillColor=#008a00;" vertex="1" parent="1">
          <mxGeometry x="695" y="390" width="20" height="20" as="geometry" />
        </mxCell>
        <mxCell id="phxbxA8KWM64b7_R9bl6-71" style="edgeStyle=orthogonalEdgeStyle;rounded=0;orthogonalLoop=1;jettySize=auto;html=1;exitX=0;exitY=0.5;exitDx=0;exitDy=0;entryX=1;entryY=0.5;entryDx=0;entryDy=0;fontFamily=Times New Roman;fontSize=16;strokeWidth=2;sketch=0;shadow=0;fillColor=#008a00;strokeColor=#005700;" edge="1" source="phxbxA8KWM64b7_R9bl6-72" target="phxbxA8KWM64b7_R9bl6-73" parent="1">
          <mxGeometry relative="1" as="geometry" />
        </mxCell>
        <mxCell id="phxbxA8KWM64b7_R9bl6-72" value="&lt;span style=&quot;font-size: 20px;&quot;&gt;+&lt;/span&gt;" style="rounded=1;whiteSpace=wrap;html=1;shadow=0;glass=0;sketch=0;fontFamily=Times New Roman;fontSize=20;strokeWidth=2;fontColor=#ffffff;fontStyle=1;strokeColor=#005700;fillColor=#008a00;" vertex="1" parent="1">
          <mxGeometry x="655" y="390" width="20" height="20" as="geometry" />
        </mxCell>
        <mxCell id="phxbxA8KWM64b7_R9bl6-73" value="&lt;span style=&quot;font-size: 20px;&quot;&gt;+&lt;/span&gt;" style="rounded=1;whiteSpace=wrap;html=1;shadow=0;glass=0;sketch=0;fontFamily=Times New Roman;fontSize=20;strokeWidth=2;fontColor=#ffffff;fontStyle=1;strokeColor=#005700;fillColor=#008a00;" vertex="1" parent="1">
          <mxGeometry x="615" y="390" width="20" height="20" as="geometry" />
        </mxCell>
        <mxCell id="phxbxA8KWM64b7_R9bl6-2" value="&lt;b&gt;&lt;font style=&quot;font-size: 17px&quot;&gt;基于字符的Encoder&lt;/font&gt;&lt;/b&gt;" style="rounded=1;whiteSpace=wrap;html=1;strokeWidth=2;sketch=0;glass=0;shadow=0;fillColor=#fff2cc;strokeColor=#d6b656;" vertex="1" parent="1">
          <mxGeometry x="480" y="460" width="340" height="60" as="geometry" />
        </mxCell>
        <mxCell id="phxbxA8KWM64b7_R9bl6-91" style="edgeStyle=orthogonalEdgeStyle;rounded=0;orthogonalLoop=1;jettySize=auto;html=1;entryX=1;entryY=0.5;entryDx=0;entryDy=0;fontFamily=Times New Roman;fontSize=16;strokeWidth=2;sketch=0;shadow=0;fillColor=#008a00;strokeColor=#005700;" edge="1" source="phxbxA8KWM64b7_R9bl6-92" target="phxbxA8KWM64b7_R9bl6-93" parent="1">
          <mxGeometry relative="1" as="geometry" />
        </mxCell>
        <mxCell id="phxbxA8KWM64b7_R9bl6-92" value="&lt;span style=&quot;font-size: 20px;&quot;&gt;+&lt;/span&gt;" style="rounded=1;whiteSpace=wrap;html=1;shadow=0;glass=0;sketch=0;fontFamily=Times New Roman;fontSize=20;strokeWidth=2;fontColor=#ffffff;fontStyle=1;strokeColor=#005700;fillColor=#008a00;" vertex="1" parent="1">
          <mxGeometry x="775" y="360" width="20" height="20" as="geometry" />
        </mxCell>
        <mxCell id="phxbxA8KWM64b7_R9bl6-93" value="&lt;span style=&quot;font-size: 20px;&quot;&gt;+&lt;/span&gt;" style="rounded=1;whiteSpace=wrap;html=1;shadow=0;glass=0;sketch=0;fontFamily=Times New Roman;fontSize=20;strokeWidth=2;fontColor=#ffffff;fontStyle=1;strokeColor=#005700;fillColor=#008a00;" vertex="1" parent="1">
          <mxGeometry x="735" y="360" width="20" height="20" as="geometry" />
        </mxCell>
        <mxCell id="phxbxA8KWM64b7_R9bl6-97" value="" style="rounded=1;whiteSpace=wrap;html=1;shadow=0;glass=0;sketch=0;fontFamily=Times New Roman;fontSize=16;strokeWidth=2;opacity=0;strokeColor=default;fillColor=#000000;" vertex="1" parent="1">
          <mxGeometry x="850" y="270" width="70" height="60" as="geometry" />
        </mxCell>
        <mxCell id="phxbxA8KWM64b7_R9bl6-98" value="" style="rounded=0;whiteSpace=wrap;html=1;shadow=0;glass=0;sketch=0;fontFamily=Times New Roman;fontSize=16;fontColor=#ffffff;strokeColor=#2D7600;strokeWidth=2;fillColor=#60a917;opacity=0;" vertex="1" parent="1">
          <mxGeometry x="840" y="350" width="120" height="100" as="geometry" />
        </mxCell>
      </root>
    </mxGraphModel>
  </diagram>
</mxfile>
